<?xml version="1.0" encoding="utf-8"?>
<!-- Generator: Adobe Illustrator 19.2.0, SVG Export Plug-In . SVG Version: 6.00 Build 0)  -->
<svg version="1.1" id="Слой_1" xmlns="http://www.w3.org/2000/svg" xmlns:xlink="http://www.w3.org/1999/xlink" x="0px" y="0px"
	 viewBox="0 0 64 64" style="enable-background:new 0 0 64 64;" xml:space="preserve">
<style type="text/css">
	.st0{fill:#FFFFFF;}
</style>
<g>
	<g>
		<path class="st0" d="M8,23.4c2.8-7.8,7.9-13.3,15.6-16.2c4.8-1.8,9.8-2.1,14.8-0.9c2.7,0.6,7,2.5,7.8,3.3
			c-1.7,0.8-3.6,1.3-5.4,1.6c-1.8,0.3-3.7,0.5-5.6,0.7c0.2,1.1,0.4,2.3,0.7,3.5c4.8-0.2,9.6-0.8,13.9-3.1c1.2,1,2.2,2.1,3.2,3.4
			c-0.1,0.1-0.2,0.2-0.4,0.2c-1.9,1-3.9,1.5-6,2c-2.7,0.6-5.4,1.1-8.2,1.4c-0.6,0.1-1.1,0.1-1.7,0.2c-0.1,0-0.2,0-0.3,0
			c0.1,1.1,0.2,2.3,0.4,3.4c0.3,0,0.5,0,0.7-0.1c3.6-0.5,7.2-1,10.7-2c1.9-0.5,3.9-1.1,5.7-2c0.3-0.2,0.6-0.3,0.9-0.5
			c0.8,1.4,1.6,2.9,2.1,4.5c-0.4,0.2-0.7,0.3-1.1,0.4c-4.3,1.5-8.6,2.7-13.1,3.4c-1.9,0.3-3.7,0.6-5.6,0.6c-1.8,0-3.7,0.1-5.5,0.1
			c-1.6,0-3.3-0.1-4.9-0.2c-5.4-0.4-10.7-1.2-15.8-2.7c-0.9-0.3-1.7-0.6-2.6-0.9C8.3,23.5,8.2,23.5,8,23.4z"/>
		<path class="st0" d="M7.1,35.2c8.1,3.6,16.6,5.4,25.5,5.3c8.8-0.1,17.3-1.8,25.5-5.4C58,35.6,58,36,57.9,36.4
			c-0.2,0.9-0.5,1.9-0.7,2.8c-0.1,0.2-0.2,0.4-0.4,0.5c-4.6,1.8-9.3,3.2-14.2,4c-2.2,0.4-4.4,0.7-6.7,0.7c-1.8,0.1-3.7,0.2-5.5,0.1
			c-3.3-0.1-6.7-0.4-9.9-1.1c-3.5-0.7-7-1.7-10.3-3.1c-0.6-0.2-1.1-0.5-1.7-0.8c-0.1-0.1-0.3-0.2-0.4-0.4
			C7.8,37.8,7.5,36.5,7.1,35.2C7.1,35.3,7.1,35.3,7.1,35.2z"/>
		<path class="st0" d="M57.9,26.6c0.3,0.5,0.6,3.6,0.5,4.2c-7.1,3-14.5,4.7-22.2,5.1c-10.2,0.5-20-1-29.3-5
			c-0.2-0.7,0.2-4.1,0.5-4.6c0.3,0.1,0.6,0.2,0.9,0.2c0,0.5-0.1,1-0.1,1.5c0.3,0.1,0.7,0.2,1,0.4c0,0.4,0,0.9-0.1,1.3
			c0.3,0.1,0.7,0.2,1,0.3c0,0.4,0,0.8-0.1,1.2c2.6,0.8,5.3,1.4,8,2c0.1-0.5,0.1-1,0.2-1.5c0.4,0,0.8,0.1,1.2,0.1
			c0.1-0.5,0.1-0.9,0.2-1.4c0.4,0,0.8,0.1,1.2,0.1c0.1-0.7,0.2-1.4,0.3-2.2c0.9,0.1,1.7,0.2,2.6,0.4c0,0.8-0.1,1.5-0.1,2.2
			c0.5,0.1,0.8,0.1,1.2,0.2c0,0.5,0,1,0,1.6c0.4,0.1,0.8,0.1,1.2,0.2c0,0.6,0,1.1,0,1.7c2.8,0.4,5.5,0.6,8.4,0.8
			c0-0.6,0.1-1.1,0.1-1.7c0.5,0,0.9,0,1.4,0c0-0.6-0.1-1.1-0.1-1.7C43.6,31.3,51,29.9,57.9,26.6z"/>
		<path class="st0" d="M55.1,43.9c-0.1,0.2-0.1,0.3-0.2,0.4c-0.8,1.1-1.5,2.2-2.3,3.3c-0.1,0.1-0.3,0.2-0.4,0.3
			c-3.7,1.4-7.5,2.4-11.4,3c-2,0.3-4,0.5-6,0.6c-1.1,0.1-2.2,0.1-3.3,0.1c-2.5,0-5.1-0.2-7.6-0.6c-3.7-0.5-7.3-1.4-10.8-2.9
			c-0.3-0.1-0.5-0.3-0.7-0.5c-0.8-1.1-1.5-2.1-2.2-3.2c-0.1-0.1-0.1-0.2-0.2-0.4C25.2,49.8,40.2,49.6,55.1,43.9z"/>
		<path class="st0" d="M18,52.6c1,0.3,2,0.6,3.1,0.9c1.9,0.5,3.9,0.8,5.9,1s4,0.2,6,0.2c2.8-0.1,5.7-0.4,8.4-1
			c2.1-0.5,4.2-1.1,6.3-1.6c0.1,0,0.2,0,0.3,0c-2.3,1.8-4.8,3.1-7.6,3.9c-4.9,1.5-9.8,1.6-14.8,0.2C22.8,55.5,20.3,54.2,18,52.6z"/>
		<path class="st0" d="M26.5,28.3c0,0.5,0,0.9-0.1,1.4c0.4,0,0.8,0.1,1.2,0.1c0-0.5,0.1-0.9,0.1-1.4c0.5,0,0.9,0.1,1.4,0.1
			c0,0.5,0,0.9,0,1.4c0.4,0,0.9,0.1,1.3,0.1c0,0.5,0,1,0,1.4c0.5,0.1,0.9,0.1,1.4,0.2c0,0.6,0,1.1,0,1.8c-0.5-0.1-0.9-0.1-1.5-0.2
			c0-0.5,0-1.1,0-1.6c-0.4,0-0.8-0.1-1.3-0.1c0,0.5,0,1,0,1.6c-0.5,0-1-0.1-1.5-0.1c0-0.6,0-1.1,0-1.6c-0.5-0.1-0.9-0.1-1.3-0.2
			c0-0.5,0-0.9,0-1.4c-0.4-0.1-0.8-0.1-1.2-0.2c0-0.5,0.1-1,0.1-1.5C25.6,28.2,26,28.2,26.5,28.3z M28.9,31.3c0-0.5,0-0.9,0-1.3
			c-0.4,0-0.8-0.1-1.2-0.1c0,0.5,0,0.9,0,1.3C28.1,31.3,28.5,31.3,28.9,31.3z"/>
		<path class="st0" d="M12.5,30.7c-0.4-0.1-0.8-0.2-1.2-0.3c0-0.5,0.1-0.9,0.1-1.3c-0.4-0.1-0.7-0.2-1.1-0.3c0-0.5,0-0.9,0.1-1.4
			c-0.3-0.1-0.6-0.2-1-0.4c0-0.5,0.1-1,0.1-1.6c0.4,0.1,0.8,0.3,1.2,0.4c0,0.5-0.1,0.9-0.1,1.4c0.3,0.1,0.7,0.2,1,0.2
			c0.1-0.5,0.1-0.9,0.2-1.4c0.4,0.1,0.8,0.2,1.2,0.3c0,0.5-0.1,0.9-0.1,1.4c0.4,0.1,0.7,0.2,1.1,0.3c0,0.5-0.1,0.9-0.1,1.4
			c0.4,0.1,0.7,0.2,1.2,0.2c0,0.5-0.1,1-0.1,1.5c-0.5-0.1-0.8-0.2-1.3-0.2c0-0.5,0.1-0.9,0.1-1.4c-0.3-0.1-0.6-0.1-1-0.2
			C12.6,29.7,12.5,30.2,12.5,30.7z M11.5,28.9c0.4,0.1,0.6,0.1,1,0.2c0.1-0.4,0.1-0.8,0.2-1.3c-0.4-0.1-0.7-0.1-1-0.2
			C11.6,28.1,11.6,28.5,11.5,28.9z"/>
	</g>
</g>
</svg>
